<mxfile host="app.diagrams.net" modified="2024-07-12T05:05:58.049Z" agent="Mozilla/5.0 (X11; Linux x86_64; rv:128.0) Gecko/20100101 Firefox/128.0" version="24.6.5" etag="nVOQbI1Mw0lDFro2VcXZ" type="github">
  <diagram name="Page-1" id="j2iGQuAarAqs_1FQIYRz">
    <mxGraphModel>
      <root>
        <mxCell id="0" />
        <mxCell id="1" parent="0" />
      </root>
    </mxGraphModel>
  </diagram>
</mxfile>
